#!OML:ASF H:\IndianDance\Patient Classification 1\Patient 1\Session 1\dancer.ASF
:FULLY-SPECIFIED
:DEGREES
2100
root 7.0766 14.2902 -1.48058 -170.924 -23.8413 -182.779
lowerback 15.1827 5.11437 -1.018
upperback -3.32831 6.60544 -0.437214
thorax -12.2635 3.15496 -1.593
lowerneck -16.4169 7.01502 5.90346
upperneck 19.9854 9.11793 -4.9761
head 9.53024 4.067 -1.48914
rclavicle -3.34952e-014 7.95139e-015
rhumerus -12.0748 59.9819 -67.9961
rradius 116.77
rwrist -85.75
rhand -19.9081 -0.902089
rfingers 7.12502
rthumb 6.42855 -30.7845
lclavicle -3.34952e-014 7.95139e-015
lhumerus 36.6519 -7.79569 12.5843
lradius 106.598
lwrist 40.4465
lhand -22.4002 34.5783
lfingers 7.12502
lthumb 4.02236 64.52
rfemur -54.3213 -1.27535 21.4487
rtibia 86.9491
rfoot -5.84852 -20.8182
rtoes 21.5339
lfemur -33.5147 1.56319 -26.5081
ltibia 59.2345
lfoot -29.0377 9.03128
ltoes 1.63993
2101
root 7.01989 14.2776 -1.49765 -171.169 -24.1973 -183.102
lowerback 15.0096 5.26826 -1.04606
upperback -3.37883 6.83545 -0.225586
thorax -12.2498 3.27641 -1.39262
lowerneck -16.5719 6.58234 5.57864
upperneck 20.4477 8.57757 -4.87811
head 9.66826 3.78568 -1.47521
rclavicle 1.27222e-014 9.54166e-015
rhumerus -8.5161 60.2646 -67.5114
rradius 116.348
rwrist -84.6549
rhand -20.1091 -0.27457
rfingers 7.12502
rthumb 6.23453 -30.1628
lclavicle 1.27222e-014 9.54166e-015
lhumerus 38.7102 -4.70321 12.0283
lradius 101.746
lwrist 41.1079
lhand -21.7733 31.736
lfingers 7.12502
lthumb 4.62767 61.6655
rfemur -55.2844 -1.44677 22.2295
rtibia 86.8279
rfoot -6.03246 -19.6926
rtoes 19.9903
lfemur -32.8755 1.50819 -27.0326
ltibia 59.1462
lfoot -29.179 8.96884
ltoes 1.79556
2102
root 6.96333 14.268 -1.51665 -171.35 -24.5429 -183.428
lowerback 14.7956 5.40421 -1.08561
upperback -3.441 7.03651 -0.0351933
thorax -12.2256 3.38446 -1.198
lowerneck -16.6963 6.16224 5.24847
upperneck 20.8289 8.05381 -4.77414
head 9.77563 3.51503 -1.45744
rclavicle -2.52457e-014 -6.36111e-015
rhumerus -4.6312 60.3964 -66.8287
rradius 115.694
rwrist -83.2859
rhand -20.3542 0.407205
rfingers 7.12502
rthumb 5.99782 -29.4879
lclavicle -2.52457e-014 -6.36111e-015
lhumerus 40.764 -1.98479 11.3451
lradius 96.936
lwrist 42.337
lhand -21.1982 29.0472
lfingers 7.12502
lthumb 5.18294 58.9639
rfemur -56.2224 -1.67281 23.1315
rtibia 86.3488
rfoot -6.2517 -18.4245
rtoes 18.1106
lfemur -32.2794 1.50486 -27.5584
ltibia 59.0215
lfoot -29.2853 8.92789
ltoes 1.85436
2103
root 6.90766 14.2618 -1.5376 -171.476 -24.8764 -183.766
lowerback 14.5589 5.53617 -1.16775
upperback -3.51618 7.2223 0.142068
thorax -12.2082 3.48776 -0.988737
lowerneck -16.8092 5.74848 4.92777
upperneck 21.1599 7.53864 -4.68323
head 9.86742 3.24918 -1.44505
rclavicle -4.07509e-015 1.59028e-015
rhumerus -0.544717 60.3705 -66.0241
rradius 114.793
rwrist -81.6981
rhand -20.6608 1.07688
rfingers 7.12502
rthumb 5.7018 -28.8264
lclavicle -4.07509e-015 1.59028e-015
lhumerus 42.797 0.395694 10.603
lradius 92.2676
lwrist 44.0433
lhand -20.837 26.7671
lfingers 7.12502
lthumb 5.53171 56.6749
rfemur -57.108 -1.93357 24.1302
rtibia 85.5157
rfoot -6.474 -17.0597
rtoes 15.9018
lfemur -31.7094 1.57482 -28.0902
ltibia 58.8476
lfoot -29.3527 8.86883
ltoes 1.82266
2104
root 6.85355 14.2597 -1.56042 -171.555 -25.1947 -184.127
lowerback 14.3211 5.67381 -1.29565
upperback -3.60332 7.40416 0.295762
thorax -12.2084 3.59115 -0.779503
lowerneck -16.9106 5.33154 4.60757
upperneck 21.4448 7.01684 -4.5862
head 9.94275 2.9826 -1.43189
rclavicle 3.33958e-014 1.59028e-015
rhumerus 3.60243 60.1783 -65.2066
rradius 113.624
rwrist -79.9477
rhand -21.0341 1.76718
rfingers 7.12502
rthumb 5.3414 -28.1455
lclavicle 3.33958e-014 1.59028e-015
lhumerus 44.7994 2.47556 9.84962
lradius 87.8047
lwrist 45.9905
lhand -20.7854 24.9744
lfingers 7.12502
lthumb 5.58155 54.8809
rfemur -57.9089 -2.20989 25.1907
rtibia 84.3321
rfoot -6.64988 -15.5843
rtoes 13.3845
lfemur -31.1458 1.72667 -28.6305
ltibia 58.6087
lfoot -29.3804 8.73866
ltoes 1.85436
2105
root 6.80112 14.2618 -1.58484 -171.592 -25.5056 -184.512
lowerback 14.0891 5.80641 -1.46156
upperback -3.69801 7.56984 0.428607
thorax -12.2245 3.68852 -0.569015
lowerneck -17.0025 4.91839 4.27564
upperneck 21.6857 6.50248 -4.4863
head 10.0031 2.72023 -1.41485
rclavicle 4.52235e-014 1.98785e-014
rhumerus 7.76578 59.8693 -64.4052
rradius 112.173
rwrist -78.0741
rhand -21.3813 2.44181
rfingers 7.12502
rthumb 5.00622 -27.4791
lclavicle 4.52235e-014 1.98785e-014
lhumerus 46.7128 4.3058 9.12061
lradius 83.6104
lwrist 47.8953
lhand -20.9913 23.647
lfingers 7.12502
lthumb 5.38276 53.5586
rfemur -58.6052 -2.4981 26.2847
rtibia 82.8081
rfoot -6.72751 -13.9394
rtoes 10.504
lfemur -30.5749 1.95143 -29.1775
ltibia 58.2925
lfoot -29.3571 8.55358
ltoes 1.84294
2106
root 6.75021 14.2686 -1.61129 -171.599 -25.7929 -184.944
lowerback 13.8839 5.94998 -1.69377
upperback -3.79745 7.73501 0.534819
thorax -12.2693 3.78885 -0.354345
lowerneck -17.0957 4.50564 3.94713
upperneck 21.8919 5.98721 -4.38464
head 10.0539 2.45911 -1.39762
rclavicle 4.40308e-014 3.10104e-014
rhumerus 11.8427 59.4545 -63.6776
rradius 110.428
rwrist -76.0901
rhand -21.7825 3.09477
rfingers 7.12502
rthumb 4.6188 -26.8349
lclavicle 4.40308e-014 3.10104e-014
lhumerus 48.5336 5.91242 8.4684
lradius 79.7129
lwrist 49.4739
lhand -21.2784 22.6651
lfingers 7.12502
lthumb 5.1055 52.5836
rfemur -59.1663 -2.78975 27.3614
rtibia 80.9835
rfoot -6.67477 -12.0328
rtoes 7.33804
lfemur -29.9762 2.25727 -29.7513
ltibia 57.9269
lfoot -29.3186 8.30992
ltoes 1.81359
2107
root 6.70043 14.28 -1.6398 -171.575 -26.0665 -185.417
lowerback 13.6966 6.10727 -1.96852
upperback -3.90048 7.90751 0.608062
thorax -12.3325 3.89418 -0.156379
lowerneck -17.1979 4.08384 3.63441
upperneck 22.0809 5.45914 -4.30071
head 10.1034 2.19186 -1.39077
rclavicle 9.83984e-015 -3.18055e-015
rhumerus 15.7575 58.9423 -63.0605
rradius 108.375
rwrist -73.9877
rhand -22.2163 3.83676
rfingers 7.12502
rthumb 4.19989 -26.1016
lclavicle 9.83984e-015 -3.18055e-015
lhumerus 50.2797 7.34036 7.92359
lradius 76.1338
lwrist 50.5449
lhand -21.4313 21.9424
lfingers 7.12502
lthumb 4.95788 51.8643
rfemur -59.5895 -3.10131 28.414
rtibia 78.8601
rfoot -6.41339 -9.80071
rtoes 4.06413
lfemur -29.3342 2.62635 -30.3445
ltibia 57.4653
lfoot -29.2274 7.97957
ltoes 1.85446
2108
root 6.64968 14.2792 -1.67071 -171.522 -26.3384 -185.924
lowerback 13.5167 6.27208 -2.25249
upperback -4.00647 8.08486 0.644911
thorax -12.4018 4.00096 0.00483118
lowerneck -17.2958 3.65203 3.32688
upperneck 22.242 4.91835 -4.22739
head 10.1444 1.91892 -1.39024
rclavicle 5.00937e-014 6.36111e-015
rhumerus 19.4716 58.3605 -62.5584
rradius 106.014
rwrist -71.7421
rhand -22.6557 4.69257
rfingers 7.12502
rthumb 3.7756 -25.2537
lclavicle 5.00937e-014 6.36111e-015
lhumerus 51.9464 8.62008 7.52585
lradius 72.8917
lwrist 51.0647
lhand -21.2658 21.4175
lfingers 7.12502
lthumb 5.11774 51.3357
rfemur -59.9852 -3.43862 29.448
rtibia 76.5619
rfoot -5.86321 -7.22124
rtoes 0.989575
lfemur -28.7048 3.02908 -30.963
ltibia 56.9776
lfoot -29.1067 7.61149
ltoes 1.90085
2109
root 6.59968 14.2993 -1.70385 -171.447 -26.608 -186.455
lowerback 13.3324 6.44488 -2.52861
upperback -4.11178 8.27113 0.64705
thorax -12.4634 4.11008 0.122461
lowerneck -17.3777 3.20656 3.01131
upperneck 22.3736 4.36203 -4.15892
head 10.1736 1.6386 -1.39227
rclavicle 6.07536e-015 -4.77083e-015
rhumerus 22.9859 57.728 -62.1485
rradius 103.34
rwrist -69.33
rhand -23.1865 5.60884
rfingers 7.12502
rthumb 3.26304 -24.3459
lclavicle 6.07536e-015 -4.77083e-015
lhumerus 53.551 9.78789 7.2983
lradius 69.9851
lwrist 51.1491
lhand -20.7152 20.9729
lfingers 7.12502
lthumb 5.64936 50.8776
rfemur -60.1284 -3.84595 30.4454
rtibia 73.9378
rfoot -4.96857 -4.3143
rtoes -1.67917
lfemur -27.9634 3.47667 -31.5759
ltibia 56.3215
lfoot -28.9302 7.20742
ltoes 1.91311
2110
root 6.54884 14.3235 -1.73983 -171.354 -26.8794 -186.993
lowerback 13.1256 6.6198 -2.76999
upperback -4.21644 8.46392 0.617697
thorax -12.5022 4.21867 0.18842
lowerneck -17.4449 2.75262 2.68298
upperneck 22.4918 3.79582 -4.08364
head 10.1967 1.35397 -1.3911
rclavicle 7.25191e-014 1.74931e-014
rhumerus 26.3073 57.0662 -61.8006
rradius 100.363
rwrist -66.7494
rhand -23.7684 6.55157
rfingers 7.12502
rthumb 2.70104 -23.4111
lclavicle 7.25191e-014 1.74931e-014
lhumerus 55.1034 10.862 7.24597
lradius 67.4179
lwrist 50.9943
lhand -19.8804 20.597
lfingers 7.12502
lthumb 6.45525 50.4786
rfemur -60.1308 -4.32407 31.4365
rtibia 71.1225
rfoot -3.62501 -1.23544
rtoes -3.50945
lfemur -27.1738 3.95314 -32.1789
ltibia 55.5761
lfoot -28.7264 6.74517
ltoes 2.00579
